<?xml version="1.0" ?><svg data-name="Layer 2" id="Layer_2" viewBox="0 0 2010 2010" xmlns="http://www.w3.org/2000/svg" xmlns:xlink="http://www.w3.org/1999/xlink"><defs><style>.cls-1{fill:url(#linear-gradient);}.cls-2{fill:url(#linear-gradient-2);}.cls-3{fill:url(#linear-gradient-3);}.cls-4{fill:url(#linear-gradient-4);}.cls-5{fill:url(#linear-gradient-5);}.cls-6{fill:url(#linear-gradient-6);}.cls-7{fill:url(#linear-gradient-7);}.cls-8{fill:url(#linear-gradient-8);}.cls-9{fill:url(#linear-gradient-9);}</style><linearGradient gradientUnits="userSpaceOnUse" id="linear-gradient" x1="120.81" x2="1495.2" y1="2038.09" y2="-413.57"><stop offset="0.06" stop-color="#ff6800"/><stop offset="1" stop-color="#fff100"/></linearGradient><linearGradient id="linear-gradient-2" x1="-151.97" x2="1222.43" xlink:href="#linear-gradient" y1="1885.17" y2="-566.49"/><linearGradient id="linear-gradient-3" x1="-99.96" x2="1274.43" xlink:href="#linear-gradient" y1="1914.33" y2="-537.34"/><linearGradient id="linear-gradient-4" x1="904.9" x2="2279.29" xlink:href="#linear-gradient" y1="2477.65" y2="25.98"/><linearGradient id="linear-gradient-5" x1="558.58" x2="1932.97" xlink:href="#linear-gradient" y1="2283.5" y2="-168.16"/><linearGradient id="linear-gradient-6" x1="389.75" x2="1764.15" xlink:href="#linear-gradient" y1="2188.86" y2="-262.81"/><linearGradient gradientUnits="userSpaceOnUse" id="linear-gradient-7" x1="2441.61" x2="788.4" y1="427.11" y2="1881.93"><stop offset="0" stop-color="#69bbff"/><stop offset="1" stop-color="#1798ff"/></linearGradient><linearGradient id="linear-gradient-8" x1="2135.93" x2="482.72" xlink:href="#linear-gradient-7" y1="79.75" y2="1534.57"/><linearGradient id="linear-gradient-9" x1="2589.28" x2="936.07" xlink:href="#linear-gradient-7" y1="594.91" y2="2049.73"/></defs><path class="cls-1" d="M1005,621.66a75,75,0,0,1-75-75V375a75,75,0,1,1,150,0V546.66A75,75,0,0,1,1005,621.66Z"/><path class="cls-2" d="M598.75,789.94a74.8,74.8,0,0,1-53-22L424.37,646.62A75,75,0,0,1,530.43,540.55L651.79,661.9a75,75,0,0,1-53,128Z"/><path class="cls-3" d="M430.48,1196.18H258.86a75,75,0,1,1,0-150H430.48a75,75,0,0,1,0,150Z"/><path class="cls-4" d="M1751.14,1196.18H1579.52a75,75,0,0,1,0-150h171.62a75,75,0,0,1,0,150Z"/><path class="cls-5" d="M1411.25,789.94a75,75,0,0,1-53-128l121.36-121.35a75,75,0,0,1,106.06,106.07L1464.28,768A74.8,74.8,0,0,1,1411.25,789.94Z"/><path class="cls-6" d="M662.92,1211.12a75,75,0,0,1-75-75,417.08,417.08,0,1,1,834.16,0,75,75,0,0,1-75,75Z"/><path class="cls-7" d="M1098.32,1710C985.68,1710,894,1618.31,894,1505.67s91.64-204.28,204.28-204.28h577.76a75,75,0,0,1,0,150H1098.32a54.29,54.29,0,0,0,0,108.57,53.65,53.65,0,0,0,40.73-18.4,75,75,0,0,1,112.46,99.27A204.45,204.45,0,0,1,1098.32,1710Z"/><path class="cls-8" d="M647.19,1710a207.46,207.46,0,0,1-154.33-68.69,75,75,0,0,1,111.67-100.15A57.27,57.27,0,0,0,647.19,1560c31.07,0,56.35-24.36,56.35-54.29s-25.28-54.28-56.34-54.28H333.92a75,75,0,0,1,0-150H647.2c113.77,0,206.34,91.64,206.34,204.28S761,1710,647.19,1710Z"/><path class="cls-9" d="M1490.83,1680.41h-99.68a75,75,0,0,1,0-150h99.68a75,75,0,0,1,0,150Z"/></svg>